<svg xmlns="http://www.w3.org/2000/svg" xmlns:xlink="http://www.w3.org/1999/xlink" width="250" zoomAndPan="magnify" viewBox="0 0 187.5 93.749997" height="125" preserveAspectRatio="xMidYMid meet" version="1.0"><defs><g/><clipPath id="3a60bd885f"><path d="M 0 48 L 109 48 L 109 63 L 0 63 Z M 0 48 " clip-rule="nonzero"/></clipPath><clipPath id="696d250244"><path d="M 4.691406 36.851562 L 109.351562 56.5625 L 104.632812 81.621094 L -0.0273438 61.910156 Z M 4.691406 36.851562 " clip-rule="nonzero"/></clipPath><clipPath id="1bcc8d6505"><path d="M 4.691406 36.851562 L 109.351562 56.5625 L 104.632812 81.621094 L -0.0273438 61.910156 Z M 4.691406 36.851562 " clip-rule="nonzero"/></clipPath><clipPath id="ae8cec842b"><path d="M 91 9 L 141 9 L 141 93.5 L 91 93.5 Z M 91 9 " clip-rule="nonzero"/></clipPath></defs><g clip-path="url(#3a60bd885f)"><g clip-path="url(#696d250244)"><g clip-path="url(#1bcc8d6505)"><path fill="#ffffff" d="M 3.722656 61.671875 C 4.09375 61.117188 4.132812 60.359375 3.792969 59.835938 C 3.761719 59.785156 3.730469 59.71875 3.6875 59.675781 C 3.613281 59.613281 3.542969 59.519531 3.46875 59.429688 C 3.46875 59.429688 3.460938 59.417969 3.460938 59.410156 C 3.453125 59.40625 3.453125 59.40625 3.453125 59.40625 C 3.148438 58.976562 2.898438 58.339844 2.753906 57.871094 C 2.792969 57.617188 2.863281 57.335938 2.964844 57.019531 C 3.453125 55.382812 5.125 53.902344 7.988281 52.550781 C 9.609375 51.753906 11.585938 51.078125 13.925781 50.519531 C 16.351562 49.972656 19.222656 49.636719 22.527344 49.527344 C 29.683594 49.351562 36.386719 50.238281 42.652344 52.199219 C 48.820312 54.152344 55.167969 56.074219 61.710938 57.96875 C 65.277344 59.074219 68.921875 60.003906 72.621094 60.75 C 76.316406 61.5 80.265625 61.992188 84.453125 62.226562 C 93.570312 62.746094 100.558594 61.902344 105.402344 59.691406 C 106.511719 59.167969 107.507812 58.714844 108.429688 58.320312 C 108.566406 58.027344 108.714844 57.738281 108.859375 57.449219 C 108.878906 57.125 108.894531 56.804688 108.910156 56.480469 C 107.769531 56.996094 106.46875 57.574219 104.960938 58.246094 C 100.023438 60.351562 93.277344 61.171875 84.699219 60.691406 C 77.40625 60.316406 70.625 59.046875 64.390625 56.902344 C 58.058594 54.746094 51.660156 52.820312 45.203125 51.121094 C 41.703125 50.207031 38.09375 49.460938 34.378906 48.898438 C 30.675781 48.332031 26.800781 48.128906 22.753906 48.269531 C 18.804688 48.429688 15.46875 48.824219 12.761719 49.441406 C 10.140625 50.164062 8.019531 50.96875 6.390625 51.859375 C 3.230469 53.648438 1.515625 55.546875 1.261719 57.566406 L 1.210938 58.257812 C 1.191406 58.445312 1.1875 58.617188 1.1875 58.78125 C 1.140625 59.179688 1.0625 59.582031 0.957031 59.925781 C 0.882812 60.171875 0.851562 60.4375 0.828125 60.691406 C 0.777344 61.332031 1.320312 62.058594 2.015625 62.285156 " fill-opacity="1" fill-rule="nonzero"/></g></g></g><g clip-path="url(#ae8cec842b)"><g fill="#ffffff" fill-opacity="1"><g transform="translate(95.862667, 61.366304)"><g><path d="M 4.28125 16.308594 C 3.785156 16.351562 3.773438 16.226562 3.273438 16.207031 C 1.902344 11.890625 6.820312 5.90625 9.367188 2.875 C 9.929688 2.140625 11.988281 -0.0351562 12.71875 -0.285156 C 12.246094 0.753906 12.117188 4.324219 10.171875 9.304688 C 9.300781 11.5 6.945312 16.078125 4.28125 16.308594 Z M 31.960938 -16.125 C 31.367188 -15.761719 30.460938 -15.433594 29.671875 -15.179688 C 27.6875 -14.257812 25.25 -12.859375 23.46875 -11.769531 L 17.683594 -7.898438 C 17.039062 -7.40625 16.402344 -6.789062 15.679688 -6.476562 C 15.699219 -7.726562 16.429688 -11.539062 16.621094 -12.929688 C 17.378906 -17.179688 18.859375 -23.925781 20.257812 -27.984375 L 22.328125 -33.65625 C 23.765625 -37.28125 29.289062 -49.25 33.609375 -49.871094 C 35.15625 -47.882812 34.320312 -41.625 34.078125 -39.355469 C 33.429688 -33.867188 32.464844 -25.476562 32.246094 -20.085938 C 32.164062 -18.828125 32.171875 -17.332031 31.960938 -16.125 Z M 4.089844 18.449219 C 13.265625 17.65625 14.785156 -2.402344 15.40625 -3.140625 C 15.457031 -3.269531 17.144531 -4.726562 17.441406 -4.878906 C 21.660156 -8.117188 21.777344 -8.1875 26.585938 -11.101562 C 28.722656 -12.410156 30.660156 -13.140625 31.789062 -13.800781 C 31.9375 -12.0625 31.785156 -10.925781 31.746094 -9.238281 L 31.386719 9.03125 C 31.507812 11.894531 31.464844 16.460938 31.65625 18.691406 C 31.753906 19.808594 31.582031 20.007812 31.667969 21 C 31.707031 22.871094 32.074219 30.023438 33.933594 29.863281 C 35.730469 29.707031 34.792969 28.226562 34.46875 24.507812 C 34.289062 22.398438 34.328125 20.710938 34.167969 18.847656 L 34.367188 -13.585938 C 34.378906 -14.898438 34.441406 -14.902344 35.597656 -15.253906 C 37.246094 -15.707031 38.046875 -15.839844 38.417969 -15.871094 C 39.039062 -15.925781 38.320312 -15.550781 39.4375 -15.648438 C 40.738281 -15.757812 40.851562 -18.082031 38.496094 -17.875 C 36.945312 -17.742188 35.984375 -17.285156 34.621094 -17.167969 C 34.503906 -18.53125 34.664062 -19.542969 34.738281 -20.863281 C 35.066406 -26.449219 36.949219 -42.289062 36.605469 -46.257812 C 36.441406 -48.179688 36.414062 -52.113281 33.25 -51.839844 C 30.398438 -51.59375 27.28125 -47.203125 26.066406 -45.347656 C 18.746094 -34.660156 15.066406 -18.664062 13.441406 -5.65625 C 13.222656 -3.828125 12.886719 -4.109375 10.527344 -1.785156 C 6.785156 1.914062 0.386719 9.523438 0.675781 15.058594 C 0.847656 17.042969 2.167969 18.613281 4.089844 18.449219 Z M 4.089844 18.449219 "/></g></g></g></g><g fill="#ffffff" fill-opacity="1"><g transform="translate(134.300501, 58.047913)"><g><path d="M 1.457031 -3.375 C 3.875 -3.582031 5.671875 -11.734375 7.597656 -13.273438 C 8.257812 -12.144531 7.605469 -9.589844 9.164062 -5.976562 C 9.867188 -4.351562 11.066406 -2.765625 12.988281 -2.933594 C 13.359375 -2.964844 13.726562 -3.058594 14.152344 -3.21875 C 15.542969 -3.714844 17.3125 -6.367188 18.085938 -7.558594 C 18.414062 -8.085938 21.675781 -12.988281 19.257812 -12.78125 C 18.144531 -12.683594 15.492188 -5.023438 13.015625 -4.808594 C 10.71875 -4.609375 10.121094 -10.117188 9.984375 -11.667969 L 9.3125 -15.109375 C 8.945312 -15.761719 8.484375 -16.035156 8.050781 -15.996094 C 6.5625 -15.871094 4.976562 -12.546875 4.664062 -11.832031 L 2.078125 -7.050781 C 1.660156 -11.886719 5.1875 -18.0625 2.457031 -17.828125 C 0.101562 -17.621094 -2.511719 -3.03125 1.457031 -3.375 Z M 1.457031 -3.375 "/></g></g></g><g fill="#ffffff" fill-opacity="1"><g transform="translate(152.899454, 56.44224)"><g><path d="M -0.289062 -4.785156 C 0.0585938 -0.753906 0.84375 6.859375 4.191406 6.570312 C 5.738281 6.4375 6.714844 3.980469 7.304688 2.867188 C 8.472656 0.457031 9.769531 -4.027344 10.84375 -6.808594 C 11.097656 -7.453125 12.710938 -11.214844 12.679688 -11.589844 C 12.652344 -11.898438 12.371094 -12.25 12.0625 -12.222656 C 11.75 -12.195312 11.402344 -11.914062 11.09375 -11.140625 C 9.414062 -7.433594 7.992188 -2.9375 6.441406 0.816406 C 5.882812 2.304688 5.160156 4.050781 3.859375 4.914062 C 0.609375 -0.175781 2.417969 -19.757812 3.613281 -26.171875 C 3.746094 -26.808594 5.046875 -30.542969 3 -30.367188 C 1.386719 -30.226562 1.097656 -27.078125 0.695312 -25.230469 C -0.363281 -19.394531 -0.816406 -10.921875 -0.289062 -4.785156 Z M -0.289062 -4.785156 "/></g></g></g><g fill="#ffffff" fill-opacity="1"><g transform="translate(163.810838, 55.500246)"><g><path d="M 5.167969 -0.195312 C 8.082031 -0.449219 10.203125 -3.378906 11.554688 -5.058594 C 12.460938 -6.136719 15.824219 -10.609375 15.722656 -11.789062 C 15.671875 -12.347656 15.472656 -12.515625 15.222656 -12.496094 C 14.046875 -12.394531 11.140625 -7.707031 10.917969 -7.375 C 10.089844 -6.117188 7.148438 -2.554688 5.164062 -2.382812 C 3.492188 -2.238281 2.496094 -5.835938 2.332031 -7.695312 C 1.789062 -14.019531 4.027344 -17.023438 1.175781 -16.777344 C -0.0664062 -16.671875 -0.445312 -13.828125 -0.519531 -12.511719 C -0.925781 -9.289062 -0.433594 -5.023438 1.296875 -2.359375 C 2.078125 -1.242188 3.492188 -0.0507812 5.167969 -0.195312 Z M 1.058594 -24.636719 C 1.175781 -23.273438 2.035156 -22.722656 2.902344 -22.800781 C 4.144531 -22.90625 5.328125 -24.382812 3.953125 -26.574219 C 3.519531 -27.226562 3.066406 -27.433594 2.632812 -27.398438 C 1.703125 -27.316406 0.933594 -26.066406 1.058594 -24.636719 Z M 1.058594 -24.636719 "/></g></g></g></svg>