<svg xmlns="http://www.w3.org/2000/svg" xmlns:xlink="http://www.w3.org/1999/xlink" width="100" zoomAndPan="magnify" viewBox="0 0 75 74.999997" height="100" preserveAspectRatio="xMidYMid meet" version="1.0"><path fill="#ffffff" d="M 53.214844 21.019531 C 50.417969 22.109375 49.015625 25.304688 50.125 28.117188 L 58.960938 50.949219 C 60.046875 53.765625 63.222656 55.171875 66.023438 54.082031 C 68.800781 52.988281 70.199219 49.796875 69.113281 46.980469 L 60.277344 24.125 C 59.191406 21.332031 56.015625 19.925781 53.214844 21.019531 " fill-opacity="1" fill-rule="evenodd"/><path fill="#5b78f6" d="M 17.933594 21.019531 C 15.132812 22.109375 13.734375 25.304688 14.820312 28.117188 L 23.675781 50.949219 C 24.765625 53.765625 27.9375 55.171875 30.71875 54.082031 C 33.515625 52.988281 34.917969 49.796875 33.828125 46.980469 L 24.992188 24.125 C 23.90625 21.332031 20.730469 19.925781 17.933594 21.019531 " fill-opacity="1" fill-rule="evenodd"/><path fill="#ffffff" d="M 53.214844 21.019531 C 56.015625 19.925781 59.191406 21.332031 60.277344 24.125 L 69.113281 46.980469 C 70.199219 49.796875 68.800781 52.988281 66.023438 54.082031 C 63.222656 55.171875 60.046875 53.765625 58.960938 50.949219 L 50.125 28.117188 C 49.015625 25.304688 50.417969 22.109375 53.214844 21.019531 Z M 21.945312 21.019531 C 24.742188 22.109375 26.140625 25.304688 25.054688 28.117188 L 16.21875 50.949219 C 15.113281 53.765625 11.9375 55.171875 9.160156 54.082031 C 6.359375 52.988281 4.960938 49.796875 6.046875 46.980469 L 14.902344 24.125 C 15.988281 21.332031 19.164062 19.925781 21.945312 21.019531 Z M 35.5625 21.019531 C 32.785156 22.109375 31.386719 25.304688 32.472656 28.117188 L 41.308594 50.949219 C 42.394531 53.765625 45.570312 55.171875 48.371094 54.082031 C 51.167969 52.988281 52.570312 49.796875 51.480469 46.980469 L 42.625 24.125 C 41.539062 21.332031 38.363281 19.925781 35.5625 21.019531 " fill-opacity="1" fill-rule="evenodd"/></svg>