<svg xmlns="http://www.w3.org/2000/svg" xmlns:xlink="http://www.w3.org/1999/xlink" width="250" zoomAndPan="magnify" viewBox="0 0 187.5 93.749997" height="125" preserveAspectRatio="xMidYMid meet" version="1.0"><defs><g/><clipPath id="f565a4f577"><path d="M 0 48 L 109 48 L 109 63 L 0 63 Z M 0 48 " clip-rule="nonzero"/></clipPath><clipPath id="cc40fab140"><path d="M 4.691406 36.851562 L 109.351562 56.5625 L 104.632812 81.621094 L -0.0273438 61.910156 Z M 4.691406 36.851562 " clip-rule="nonzero"/></clipPath><clipPath id="cdd18d5639"><path d="M 4.691406 36.851562 L 109.351562 56.5625 L 104.632812 81.621094 L -0.0273438 61.910156 Z M 4.691406 36.851562 " clip-rule="nonzero"/></clipPath><clipPath id="7bf47c99c0"><path d="M 91 9 L 141 9 L 141 93.5 L 91 93.5 Z M 91 9 " clip-rule="nonzero"/></clipPath></defs><g clip-path="url(#f565a4f577)"><g clip-path="url(#cc40fab140)"><g clip-path="url(#cdd18d5639)"><path fill="#ffffff" d="M 3.722656 61.671875 C 4.09375 61.117188 4.132812 60.359375 3.792969 59.835938 C 3.761719 59.785156 3.730469 59.71875 3.6875 59.675781 C 3.613281 59.613281 3.542969 59.519531 3.46875 59.429688 C 3.46875 59.429688 3.460938 59.417969 3.460938 59.410156 C 3.453125 59.40625 3.453125 59.40625 3.453125 59.40625 C 3.148438 58.976562 2.898438 58.339844 2.753906 57.871094 C 2.792969 57.617188 2.863281 57.335938 2.964844 57.019531 C 3.453125 55.382812 5.125 53.902344 7.988281 52.550781 C 9.609375 51.753906 11.585938 51.078125 13.925781 50.519531 C 16.351562 49.972656 19.222656 49.636719 22.527344 49.527344 C 29.683594 49.351562 36.386719 50.238281 42.652344 52.199219 C 48.820312 54.152344 55.167969 56.074219 61.710938 57.96875 C 65.277344 59.074219 68.921875 60.003906 72.621094 60.75 C 76.316406 61.5 80.265625 61.992188 84.453125 62.226562 C 93.570312 62.746094 100.558594 61.902344 105.402344 59.691406 C 106.511719 59.167969 107.507812 58.714844 108.429688 58.320312 C 108.566406 58.027344 108.714844 57.738281 108.859375 57.449219 C 108.878906 57.125 108.894531 56.804688 108.910156 56.480469 C 107.769531 56.996094 106.46875 57.574219 104.960938 58.246094 C 100.023438 60.351562 93.277344 61.171875 84.699219 60.691406 C 77.40625 60.316406 70.625 59.046875 64.390625 56.902344 C 58.058594 54.746094 51.660156 52.820312 45.203125 51.121094 C 41.703125 50.207031 38.09375 49.460938 34.378906 48.898438 C 30.675781 48.332031 26.800781 48.128906 22.753906 48.269531 C 18.804688 48.429688 15.46875 48.824219 12.761719 49.441406 C 10.140625 50.164062 8.019531 50.96875 6.390625 51.859375 C 3.230469 53.648438 1.515625 55.546875 1.261719 57.566406 L 1.210938 58.257812 C 1.191406 58.445312 1.1875 58.617188 1.1875 58.78125 C 1.140625 59.179688 1.0625 59.582031 0.957031 59.925781 C 0.882812 60.171875 0.851562 60.4375 0.828125 60.691406 C 0.777344 61.332031 1.320312 62.058594 2.015625 62.285156 " fill-opacity="1" fill-rule="nonzero"/></g></g></g><g clip-path="url(#7bf47c99c0)"><g fill="#ffffff" fill-opacity="1"><g transform="translate(95.862667, 61.366304)"><g><path d="M 4.28125 16.308594 C 3.785156 16.351562 3.773438 16.226562 3.273438 16.207031 C 1.902344 11.890625 6.820312 5.90625 9.367188 2.875 C 9.929688 2.140625 11.988281 -0.0351562 12.71875 -0.285156 C 12.246094 0.753906 12.117188 4.324219 10.171875 9.304688 C 9.300781 11.5 6.945312 16.078125 4.28125 16.308594 Z M 31.960938 -16.125 C 31.367188 -15.761719 30.460938 -15.433594 29.671875 -15.179688 C 27.6875 -14.257812 25.25 -12.859375 23.46875 -11.769531 L 17.683594 -7.898438 C 17.039062 -7.40625 16.402344 -6.789062 15.679688 -6.476562 C 15.699219 -7.726562 16.429688 -11.539062 16.621094 -12.929688 C 17.378906 -17.179688 18.859375 -23.925781 20.257812 -27.984375 L 22.328125 -33.65625 C 23.765625 -37.28125 29.289062 -49.25 33.609375 -49.871094 C 35.15625 -47.882812 34.320312 -41.625 34.078125 -39.355469 C 33.429688 -33.867188 32.464844 -25.476562 32.246094 -20.085938 C 32.164062 -18.828125 32.171875 -17.332031 31.960938 -16.125 Z M 4.089844 18.449219 C 13.265625 17.65625 14.785156 -2.402344 15.40625 -3.140625 C 15.457031 -3.269531 17.144531 -4.726562 17.441406 -4.878906 C 21.660156 -8.117188 21.777344 -8.1875 26.585938 -11.101562 C 28.722656 -12.410156 30.660156 -13.140625 31.789062 -13.800781 C 31.9375 -12.0625 31.785156 -10.925781 31.746094 -9.238281 L 31.386719 9.03125 C 31.507812 11.894531 31.464844 16.460938 31.65625 18.691406 C 31.753906 19.808594 31.582031 20.007812 31.667969 21 C 31.707031 22.871094 32.074219 30.023438 33.933594 29.863281 C 35.730469 29.707031 34.792969 28.226562 34.46875 24.507812 C 34.289062 22.398438 34.328125 20.710938 34.167969 18.847656 L 34.367188 -13.585938 C 34.378906 -14.898438 34.441406 -14.902344 35.597656 -15.253906 C 37.246094 -15.707031 38.046875 -15.839844 38.417969 -15.871094 C 39.039062 -15.925781 38.320312 -15.550781 39.4375 -15.648438 C 40.738281 -15.757812 40.851562 -18.082031 38.496094 -17.875 C 36.945312 -17.742188 35.984375 -17.285156 34.621094 -17.167969 C 34.503906 -18.53125 34.664062 -19.542969 34.738281 -20.863281 C 35.066406 -26.449219 36.949219 -42.289062 36.605469 -46.257812 C 36.441406 -48.179688 36.414062 -52.113281 33.25 -51.839844 C 30.398438 -51.59375 27.28125 -47.203125 26.066406 -45.347656 C 18.746094 -34.660156 15.066406 -18.664062 13.441406 -5.65625 C 13.222656 -3.828125 12.886719 -4.109375 10.527344 -1.785156 C 6.785156 1.914062 0.386719 9.523438 0.675781 15.058594 C 0.847656 17.042969 2.167969 18.613281 4.089844 18.449219 Z M 4.089844 18.449219 "/></g></g></g></g><g fill="#ffffff" fill-opacity="1"><g transform="translate(134.300501, 58.047913)"><g><path d="M 1.457031 -3.375 C 3.875 -3.582031 5.671875 -11.734375 7.597656 -13.273438 C 8.257812 -12.144531 7.605469 -9.589844 9.164062 -5.976562 C 9.867188 -4.351562 11.066406 -2.765625 12.988281 -2.933594 C 13.359375 -2.964844 13.726562 -3.058594 14.152344 -3.21875 C 15.542969 -3.714844 17.3125 -6.367188 18.085938 -7.558594 C 18.414062 -8.085938 21.675781 -12.988281 19.257812 -12.78125 C 18.144531 -12.683594 15.492188 -5.023438 13.015625 -4.808594 C 10.71875 -4.609375 10.121094 -10.117188 9.984375 -11.667969 L 9.3125 -15.109375 C 8.945312 -15.761719 8.484375 -16.035156 8.050781 -15.996094 C 6.5625 -15.871094 4.976562 -12.546875 4.664062 -11.832031 L 2.078125 -7.050781 C 1.660156 -11.886719 5.1875 -18.0625 2.457031 -17.828125 C 0.101562 -17.621094 -2.511719 -3.03125 1.457031 -3.375 Z M 1.457031 -3.375 "/></g></g></g><g fill="#ffffff" fill-opacity="1"><g transform="translate(152.899454, 56.44224)"><g><path d="M -0.289062 -4.785156 C 0.0585938 -0.753906 0.84375 6.859375 4.191406 6.570312 C 5.738281 6.4375 6.714844 3.980469 7.304688 2.867188 C 8.472656 0.457031 9.769531 -4.027344 10.84375 -6.808594 C 11.097656 -7.453125 12.710938 -11.214844 12.679688 -11.589844 C 12.652344 -11.898438 12.371094 -12.25 12.0625 -12.222656 C 11.75 -12.195312 11.402344 -11.914062 11.09375 -11.140625 C 9.414062 -7.433594 7.992188 -2.9375 6.441406 0.816406 C 5.882812 2.304688 5.160156 4.050781 3.859375 4.914062 C 0.609375 -0.175781 2.417969 -19.757812 3.613281 -26.171875 C 3.746094 -26.808594 5.046875 -30.542969 3 -30.367188 C 1.386719 -30.226562 1.097656 -27.078125 0.695312 -25.230469 C -0.363281 -19.394531 -0.816406 -10.921875 -0.289062 -4.785156 Z M -0.289062 -4.785156 "/></g></g></g><g fill="#ffffff" fill-opacity="1"><g transform="translate(163.810838, 55.500246)"><g><path d="M 5.167969 -0.195312 C 8.082031 -0.449219 10.203125 -3.378906 11.554688 -5.058594 C 12.460938 -6.136719 15.824219 -10.609375 15.722656 -11.789062 C 15.671875 -12.347656 15.472656 -12.515625 15.222656 -12.496094 C 14.046875 -12.394531 11.140625 -7.707031 10.917969 -7.375 C 10.089844 -6.117188 7.148438 -2.554688 5.164062 -2.382812 C 3.492188 -2.238281 2.496094 -5.835938 2.332031 -7.695312 C 1.789062 -14.019531 4.027344 -17.023438 1.175781 -16.777344 C -0.0664062 -16.671875 -0.445312 -13.828125 -0.519531 -12.511719 C -0.925781 -9.289062 -0.433594 -5.023438 1.296875 -2.359375 C 2.078125 -1.242188 3.492188 -0.0507812 5.167969 -0.195312 Z M 1.058594 -24.636719 C 1.175781 -23.273438 2.035156 -22.722656 2.902344 -22.800781 C 4.144531 -22.90625 5.328125 -24.382812 3.953125 -26.574219 C 3.519531 -27.226562 3.066406 -27.433594 2.632812 -27.398438 C 1.703125 -27.316406 0.933594 -26.066406 1.058594 -24.636719 Z M 1.058594 -24.636719 "/></g></g></g><g fill="#5b78f6" fill-opacity="1"><g transform="translate(46.436616, 44.499312)"><g/></g></g><g fill="#5b78f6" fill-opacity="1"><g transform="translate(50.922939, 46.472047)"><g/></g></g><g fill="#5b78f6" fill-opacity="1"><g transform="translate(55.497403, 48.230754)"><g/></g></g><g fill="#5b78f6" fill-opacity="1"><g transform="translate(60.149803, 49.771525)"><g/></g></g><g fill="#5b78f6" fill-opacity="1"><g transform="translate(64.869747, 51.090909)"><g/></g></g><g fill="#5b78f6" fill-opacity="1"><g transform="translate(69.646738, 52.185977)"><g/></g></g><g fill="#5b78f6" fill-opacity="1"><g transform="translate(74.470101, 53.054276)"><g/></g></g><g fill="#5b78f6" fill-opacity="1"><g transform="translate(79.329077, 53.693872)"><g/></g></g><g fill="#5b78f6" fill-opacity="1"><g transform="translate(84.261599, 54.140138)"><g><path d="M 4.015625 -0.046875 C 3.847656 0.00390625 3.648438 0.0390625 3.421875 0.0625 C 3.203125 0.0820312 2.894531 0.0859375 2.5 0.078125 L 0.84375 0.03125 C 0.9375 0.0078125 1.035156 -0.0625 1.140625 -0.1875 C 1.242188 -0.3125 1.300781 -0.5625 1.3125 -0.9375 L 1.46875 -5.890625 C 1.476562 -6.234375 1.4375 -6.472656 1.34375 -6.609375 C 1.257812 -6.742188 1.171875 -6.820312 1.078125 -6.84375 L 2.71875 -6.796875 C 3.144531 -6.785156 3.46875 -6.753906 3.6875 -6.703125 C 3.90625 -6.660156 4.097656 -6.601562 4.265625 -6.53125 C 4.554688 -6.382812 4.773438 -6.179688 4.921875 -5.921875 C 5.078125 -5.660156 5.148438 -5.382812 5.140625 -5.09375 C 5.128906 -4.644531 4.984375 -4.265625 4.703125 -3.953125 C 4.421875 -3.640625 4.0625 -3.441406 3.625 -3.359375 C 3.914062 -3.316406 4.191406 -3.222656 4.453125 -3.078125 C 4.722656 -2.929688 4.941406 -2.734375 5.109375 -2.484375 C 5.273438 -2.242188 5.351562 -1.96875 5.34375 -1.65625 C 5.320312 -1.238281 5.191406 -0.894531 4.953125 -0.625 C 4.722656 -0.363281 4.410156 -0.171875 4.015625 -0.046875 Z M 3.921875 -6.078125 C 3.804688 -6.171875 3.671875 -6.242188 3.515625 -6.296875 C 3.359375 -6.359375 3.148438 -6.394531 2.890625 -6.40625 L 2.203125 -6.421875 L 2.109375 -3.578125 L 2.921875 -3.546875 C 3.160156 -3.546875 3.363281 -3.578125 3.53125 -3.640625 C 3.695312 -3.710938 3.835938 -3.804688 3.953125 -3.921875 C 4.078125 -4.046875 4.175781 -4.195312 4.25 -4.375 C 4.332031 -4.550781 4.378906 -4.734375 4.390625 -4.921875 C 4.398438 -5.148438 4.363281 -5.363281 4.28125 -5.5625 C 4.207031 -5.757812 4.085938 -5.929688 3.921875 -6.078125 Z M 4.046875 -2.828125 C 3.921875 -2.929688 3.765625 -3.007812 3.578125 -3.0625 C 3.390625 -3.113281 3.132812 -3.144531 2.8125 -3.15625 L 2.09375 -3.171875 L 2.015625 -0.34375 L 2.96875 -0.3125 C 3.445312 -0.300781 3.820312 -0.398438 4.09375 -0.609375 C 4.375 -0.828125 4.523438 -1.179688 4.546875 -1.671875 C 4.554688 -2.140625 4.390625 -2.523438 4.046875 -2.828125 Z M 4.046875 -2.828125 "/></g></g></g><g fill="#5b78f6" fill-opacity="1"><g transform="translate(92.616034, 54.296923)"><g><path d="M 5.484375 -7.140625 C 5.421875 -7.128906 5.316406 -7.050781 5.171875 -6.90625 C 5.035156 -6.769531 4.875 -6.519531 4.6875 -6.15625 L 3.09375 -3.109375 L 3.1875 -1.09375 C 3.207031 -0.75 3.265625 -0.507812 3.359375 -0.375 C 3.460938 -0.25 3.554688 -0.179688 3.640625 -0.171875 L 2.125 -0.109375 C 2.195312 -0.117188 2.273438 -0.191406 2.359375 -0.328125 C 2.453125 -0.460938 2.488281 -0.707031 2.46875 -1.0625 L 2.375 -3.078125 L 0.53125 -5.96875 C 0.3125 -6.3125 0.125 -6.539062 -0.03125 -6.65625 C -0.1875 -6.769531 -0.304688 -6.835938 -0.390625 -6.859375 L 1.296875 -6.9375 C 1.128906 -6.894531 1.050781 -6.789062 1.0625 -6.625 C 1.0625 -6.5625 1.082031 -6.488281 1.125 -6.40625 C 1.164062 -6.332031 1.238281 -6.21875 1.34375 -6.0625 L 2.890625 -3.578125 L 4.234375 -6.171875 C 4.335938 -6.359375 4.382812 -6.546875 4.375 -6.734375 C 4.363281 -6.859375 4.316406 -6.941406 4.234375 -6.984375 C 4.160156 -7.035156 4.085938 -7.0625 4.015625 -7.0625 Z M 5.484375 -7.140625 "/></g></g></g><g fill="#5b78f6" fill-opacity="1"><g transform="translate(16.746716, 42.839849)"><g><path d="M 5.265625 -1 C 4.671875 -0.570312 3.847656 -0.316406 2.796875 -0.234375 L 0.84375 -0.0625 C 0.84375 -0.0390625 0.878906 -0.0625 0.953125 -0.125 C 1.035156 -0.195312 1.101562 -0.3125 1.15625 -0.46875 C 1.207031 -0.625 1.222656 -0.851562 1.203125 -1.15625 L 0.796875 -6.046875 C 0.773438 -6.304688 0.726562 -6.503906 0.65625 -6.640625 C 0.582031 -6.773438 0.5 -6.859375 0.40625 -6.890625 C 0.320312 -6.929688 0.28125 -6.941406 0.28125 -6.921875 L 2.234375 -7.09375 C 3.253906 -7.175781 4.078125 -7.070312 4.703125 -6.78125 C 5.242188 -6.53125 5.675781 -6.164062 6 -5.6875 C 6.332031 -5.21875 6.523438 -4.671875 6.578125 -4.046875 C 6.628906 -3.367188 6.539062 -2.769531 6.3125 -2.25 C 6.082031 -1.726562 5.734375 -1.3125 5.265625 -1 Z M 4.4375 -6.328125 C 4.132812 -6.484375 3.8125 -6.59375 3.46875 -6.65625 C 3.125 -6.71875 2.722656 -6.734375 2.265625 -6.703125 L 1.46875 -6.625 L 1.96875 -0.5625 L 2.765625 -0.640625 C 3.304688 -0.679688 3.75 -0.757812 4.09375 -0.875 C 4.4375 -1 4.726562 -1.164062 4.96875 -1.375 C 5.269531 -1.65625 5.492188 -2.003906 5.640625 -2.421875 C 5.785156 -2.847656 5.832031 -3.335938 5.78125 -3.890625 C 5.738281 -4.460938 5.597656 -4.957031 5.359375 -5.375 C 5.117188 -5.789062 4.8125 -6.109375 4.4375 -6.328125 Z M 4.4375 -6.328125 "/></g></g></g><g fill="#5b78f6" fill-opacity="1"><g transform="translate(26.126558, 42.197001)"><g><path d="M 0.84375 0 C 0.84375 0.0195312 0.882812 0.00390625 0.96875 -0.046875 C 1.050781 -0.0976562 1.125 -0.195312 1.1875 -0.34375 C 1.25 -0.488281 1.28125 -0.707031 1.28125 -1 L 1.265625 -5.90625 C 1.265625 -6.175781 1.234375 -6.382812 1.171875 -6.53125 C 1.109375 -6.675781 1.035156 -6.773438 0.953125 -6.828125 C 0.867188 -6.878906 0.828125 -6.894531 0.828125 -6.875 L 4.453125 -6.890625 L 4.453125 -5.890625 C 4.335938 -6.296875 3.976562 -6.5 3.375 -6.5 L 1.984375 -6.484375 L 1.984375 -3.640625 L 3.703125 -3.65625 C 3.835938 -3.65625 3.953125 -3.675781 4.046875 -3.71875 C 4.140625 -3.757812 4.207031 -3.800781 4.25 -3.84375 C 4.300781 -3.894531 4.328125 -3.929688 4.328125 -3.953125 L 4.328125 -2.96875 C 4.328125 -2.988281 4.300781 -3.019531 4.25 -3.0625 C 4.207031 -3.113281 4.140625 -3.15625 4.046875 -3.1875 C 3.960938 -3.226562 3.851562 -3.25 3.71875 -3.25 L 1.984375 -3.234375 L 2 -0.40625 L 3.5625 -0.421875 C 3.863281 -0.421875 4.117188 -0.476562 4.328125 -0.59375 C 4.546875 -0.71875 4.703125 -0.878906 4.796875 -1.078125 L 4.625 -0.015625 Z M 0.84375 0 "/></g></g></g><g fill="#5b78f6" fill-opacity="1"><g transform="translate(33.39934, 42.244939)"><g><path d="M 2.65625 0.296875 C 2.3125 0.273438 1.984375 0.203125 1.671875 0.078125 C 1.359375 -0.0351562 1.082031 -0.191406 0.84375 -0.390625 L 0.921875 -1.59375 C 1.054688 -1.132812 1.296875 -0.773438 1.640625 -0.515625 C 1.984375 -0.265625 2.347656 -0.128906 2.734375 -0.109375 C 3.117188 -0.078125 3.445312 -0.179688 3.71875 -0.421875 C 3.988281 -0.660156 4.140625 -0.972656 4.171875 -1.359375 C 4.179688 -1.609375 4.140625 -1.828125 4.046875 -2.015625 C 3.960938 -2.203125 3.816406 -2.378906 3.609375 -2.546875 C 3.398438 -2.722656 3.09375 -2.921875 2.6875 -3.140625 C 2.125 -3.429688 1.71875 -3.726562 1.46875 -4.03125 C 1.226562 -4.34375 1.125 -4.707031 1.15625 -5.125 C 1.175781 -5.476562 1.28125 -5.785156 1.46875 -6.046875 C 1.65625 -6.304688 1.894531 -6.503906 2.1875 -6.640625 C 2.488281 -6.773438 2.8125 -6.832031 3.15625 -6.8125 C 3.457031 -6.789062 3.742188 -6.726562 4.015625 -6.625 C 4.296875 -6.519531 4.554688 -6.382812 4.796875 -6.21875 L 4.734375 -5.140625 C 4.597656 -5.515625 4.378906 -5.8125 4.078125 -6.03125 C 3.773438 -6.257812 3.457031 -6.382812 3.125 -6.40625 C 2.738281 -6.425781 2.421875 -6.320312 2.171875 -6.09375 C 1.921875 -5.863281 1.78125 -5.578125 1.75 -5.234375 C 1.738281 -4.992188 1.796875 -4.78125 1.921875 -4.59375 C 2.054688 -4.40625 2.21875 -4.242188 2.40625 -4.109375 C 2.601562 -3.984375 2.878906 -3.816406 3.234375 -3.609375 C 3.597656 -3.421875 3.890625 -3.238281 4.109375 -3.0625 C 4.335938 -2.894531 4.523438 -2.679688 4.671875 -2.421875 C 4.816406 -2.171875 4.878906 -1.867188 4.859375 -1.515625 C 4.828125 -1.117188 4.707031 -0.773438 4.5 -0.484375 C 4.289062 -0.203125 4.023438 0.00390625 3.703125 0.140625 C 3.378906 0.273438 3.03125 0.328125 2.65625 0.296875 Z M 2.65625 0.296875 "/></g></g></g><g fill="#5b78f6" fill-opacity="1"><g transform="translate(40.678564, 42.814896)"><g><path d="M 0.84375 0.109375 C 0.84375 0.128906 0.878906 0.117188 0.953125 0.078125 C 1.035156 0.0351562 1.117188 -0.046875 1.203125 -0.171875 C 1.285156 -0.304688 1.34375 -0.507812 1.375 -0.78125 L 2 -5.75 C 2.03125 -6.007812 2.023438 -6.210938 1.984375 -6.359375 C 1.941406 -6.503906 1.882812 -6.601562 1.8125 -6.65625 C 1.738281 -6.71875 1.703125 -6.738281 1.703125 -6.71875 L 3.28125 -6.53125 C 3.28125 -6.550781 3.238281 -6.539062 3.15625 -6.5 C 3.070312 -6.46875 2.984375 -6.382812 2.890625 -6.25 C 2.804688 -6.113281 2.75 -5.914062 2.71875 -5.65625 L 2.09375 -0.6875 C 2.0625 -0.414062 2.070312 -0.207031 2.125 -0.0625 C 2.175781 0.0703125 2.238281 0.164062 2.3125 0.21875 C 2.382812 0.28125 2.421875 0.304688 2.421875 0.296875 Z M 0.84375 0.109375 "/></g></g></g><g fill="#5b78f6" fill-opacity="1"><g transform="translate(45.755008, 43.441767)"><g><path d="M 4.09375 0.90625 C 3.46875 0.789062 2.914062 0.550781 2.4375 0.1875 C 1.957031 -0.175781 1.609375 -0.648438 1.390625 -1.234375 C 1.171875 -1.828125 1.132812 -2.5 1.28125 -3.25 C 1.414062 -3.914062 1.6875 -4.484375 2.09375 -4.953125 C 2.5 -5.429688 3.007812 -5.765625 3.625 -5.953125 C 4.238281 -6.148438 4.90625 -6.175781 5.625 -6.03125 C 6.082031 -5.945312 6.484375 -5.816406 6.828125 -5.640625 C 7.179688 -5.460938 7.453125 -5.285156 7.640625 -5.109375 L 7.421875 -4.03125 C 7.296875 -4.425781 7.050781 -4.769531 6.6875 -5.0625 C 6.332031 -5.351562 5.945312 -5.539062 5.53125 -5.625 C 4.945312 -5.738281 4.414062 -5.710938 3.9375 -5.546875 C 3.457031 -5.390625 3.054688 -5.109375 2.734375 -4.703125 C 2.421875 -4.296875 2.203125 -3.785156 2.078125 -3.171875 C 1.953125 -2.515625 1.972656 -1.921875 2.140625 -1.390625 C 2.316406 -0.867188 2.601562 -0.445312 3 -0.125 C 3.394531 0.1875 3.847656 0.394531 4.359375 0.5 C 4.585938 0.539062 4.832031 0.5625 5.09375 0.5625 C 5.363281 0.5625 5.617188 0.523438 5.859375 0.453125 L 6.1875 -1.15625 C 6.21875 -1.363281 6.210938 -1.53125 6.171875 -1.65625 C 6.128906 -1.78125 6.078125 -1.875 6.015625 -1.9375 C 5.953125 -2.007812 5.914062 -2.039062 5.90625 -2.03125 L 7.46875 -1.71875 C 7.476562 -1.726562 7.4375 -1.71875 7.34375 -1.6875 C 7.257812 -1.664062 7.171875 -1.609375 7.078125 -1.515625 C 6.992188 -1.421875 6.929688 -1.273438 6.890625 -1.078125 L 6.546875 0.71875 C 6.160156 0.851562 5.753906 0.9375 5.328125 0.96875 C 4.898438 1.007812 4.488281 0.988281 4.09375 0.90625 Z M 4.09375 0.90625 "/></g></g></g><g fill="#5b78f6" fill-opacity="1"><g transform="translate(55.010858, 45.330142)"><g><path d="M 8.921875 -4.546875 C 8.835938 -4.554688 8.726562 -4.507812 8.59375 -4.40625 C 8.46875 -4.3125 8.359375 -4.113281 8.265625 -3.8125 L 6.515625 2.1875 L 3.28125 -4.953125 L 1.9375 -0.375 C 1.851562 -0.0625 1.847656 0.171875 1.921875 0.328125 C 1.992188 0.484375 2.078125 0.585938 2.171875 0.640625 L 0.8125 0.234375 C 0.90625 0.242188 1.019531 0.195312 1.15625 0.09375 C 1.289062 0 1.398438 -0.203125 1.484375 -0.515625 L 2.890625 -5.3125 C 2.953125 -5.53125 2.929688 -5.75 2.828125 -5.96875 C 2.734375 -6.1875 2.582031 -6.351562 2.375 -6.46875 L 3.5625 -6.109375 L 6.546875 0.453125 L 7.828125 -3.9375 C 7.972656 -4.425781 7.882812 -4.765625 7.5625 -4.953125 Z M 8.921875 -4.546875 "/></g></g></g><g fill="#5b78f6" fill-opacity="1"><g transform="translate(64.526626, 48.250412)"><g><path d="M 0.78125 0.296875 C 0.769531 0.316406 0.8125 0.316406 0.90625 0.296875 C 1.007812 0.285156 1.117188 0.21875 1.234375 0.09375 C 1.347656 -0.0195312 1.457031 -0.210938 1.5625 -0.484375 L 3.3125 -5.0625 C 3.40625 -5.3125 3.445312 -5.515625 3.4375 -5.671875 C 3.425781 -5.835938 3.390625 -5.957031 3.328125 -6.03125 C 3.273438 -6.113281 3.242188 -6.144531 3.234375 -6.125 L 6.625 -4.828125 L 6.265625 -3.890625 C 6.304688 -4.316406 6.046875 -4.632812 5.484375 -4.84375 L 4.1875 -5.34375 L 3.171875 -2.6875 L 4.765625 -2.078125 C 4.890625 -2.023438 5.003906 -2 5.109375 -2 C 5.210938 -2.007812 5.296875 -2.03125 5.359375 -2.0625 C 5.421875 -2.09375 5.457031 -2.113281 5.46875 -2.125 L 5.125 -1.21875 C 5.125 -1.226562 5.109375 -1.265625 5.078125 -1.328125 C 5.046875 -1.390625 4.992188 -1.453125 4.921875 -1.515625 C 4.859375 -1.578125 4.765625 -1.632812 4.640625 -1.6875 L 3.03125 -2.296875 L 2.015625 0.34375 L 3.46875 0.890625 C 3.75 1.003906 4.007812 1.039062 4.25 1 C 4.5 0.957031 4.703125 0.863281 4.859375 0.71875 L 4.3125 1.65625 Z M 0.78125 0.296875 "/></g></g></g><g fill="#5b78f6" fill-opacity="1"><g transform="translate(71.281595, 50.870782)"><g><path d="M 5.046875 1.765625 C 4.328125 1.847656 3.492188 1.660156 2.546875 1.203125 L 0.765625 0.359375 C 0.753906 0.378906 0.796875 0.378906 0.890625 0.359375 C 0.992188 0.347656 1.101562 0.285156 1.21875 0.171875 C 1.34375 0.0664062 1.472656 -0.125 1.609375 -0.40625 L 3.71875 -4.828125 C 3.820312 -5.066406 3.875 -5.257812 3.875 -5.40625 C 3.882812 -5.5625 3.863281 -5.675781 3.8125 -5.75 C 3.757812 -5.832031 3.726562 -5.863281 3.71875 -5.84375 L 5.5 -5 C 6.414062 -4.5625 7.070312 -4.066406 7.46875 -3.515625 C 7.8125 -3.023438 8.003906 -2.492188 8.046875 -1.921875 C 8.085938 -1.347656 7.972656 -0.773438 7.703125 -0.203125 C 7.410156 0.398438 7.035156 0.867188 6.578125 1.203125 C 6.117188 1.546875 5.609375 1.734375 5.046875 1.765625 Z M 7 -3.234375 C 6.820312 -3.523438 6.597656 -3.785156 6.328125 -4.015625 C 6.066406 -4.242188 5.734375 -4.457031 5.328125 -4.65625 L 4.59375 -5 L 1.984375 0.5 L 2.71875 0.84375 C 3.207031 1.082031 3.628906 1.234375 3.984375 1.296875 C 4.347656 1.359375 4.6875 1.359375 5 1.296875 C 5.394531 1.203125 5.757812 1.007812 6.09375 0.71875 C 6.425781 0.425781 6.710938 0.03125 6.953125 -0.46875 C 7.191406 -0.988281 7.3125 -1.488281 7.3125 -1.96875 C 7.320312 -2.445312 7.21875 -2.867188 7 -3.234375 Z M 7 -3.234375 "/></g></g></g></svg>